<svg width="26" height="26" viewBox="0 0 26 26" fill="none" xmlns="http://www.w3.org/2000/svg">
<path d="M3.09498 20.4293L3.54219 20.6529L3.68051 20.3762L3.49474 20.1289L3.09498 20.4293ZM5.57081 22.9051L5.87113 22.5053L5.62384 22.3196L5.3472 22.4579L5.57081 22.9051ZM0.619141 25.3809L0.171927 25.1573C0.0756799 25.3498 0.113407 25.5823 0.265587 25.7345C0.417767 25.8867 0.650253 25.9244 0.842747 25.8281L0.619141 25.3809ZM8.04771 8.0476L7.74771 7.6476C7.62181 7.74203 7.54771 7.89023 7.54771 8.0476H8.04771ZM17.9525 17.9524V18.4524C18.1 18.4524 18.2399 18.3873 18.3349 18.2744L17.9525 17.9524ZM8.81713 7.47054L8.51713 7.07054L8.81713 7.47054ZM10.7885 8.30745L10.2924 8.36946L10.7885 8.30745ZM11.0678 10.542L11.564 10.48L11.0678 10.542ZM10.7148 11.571L10.3612 11.2175L10.7148 11.571ZM18.5013 17.3006L18.1189 16.9785L18.5013 17.3006ZM17.7336 15.2781L17.806 14.7833L17.7336 15.2781ZM15.4724 14.9471L15.5448 14.4524L15.4724 14.9471ZM14.4176 15.2967L14.7712 15.6503L14.4176 15.2967ZM0.119156 13C0.119156 15.8995 1.0778 18.5766 2.69521 20.7296L3.49474 20.1289C2.00295 18.1432 1.11916 15.6755 1.11916 13H0.119156ZM13.0001 0.119019C5.88616 0.119019 0.119156 5.88602 0.119156 13H1.11916C1.11916 6.4383 6.43844 1.11902 13.0001 1.11902V0.119019ZM25.8811 13C25.8811 5.88602 20.1141 0.119019 13.0001 0.119019V1.11902C19.5618 1.11902 24.8811 6.4383 24.8811 13H25.8811ZM13.0001 25.8809C20.1141 25.8809 25.8811 20.1139 25.8811 13H24.8811C24.8811 19.5616 19.5618 24.8809 13.0001 24.8809V25.8809ZM5.27049 23.3049C7.42349 24.9223 10.1006 25.8809 13.0001 25.8809V24.8809C10.3246 24.8809 7.85689 23.9971 5.87113 22.5053L5.27049 23.3049ZM0.842747 25.8281L5.79442 23.3523L5.3472 22.4579L0.395534 24.9337L0.842747 25.8281ZM2.64776 20.2057L0.171927 25.1573L1.06635 25.6045L3.54219 20.6529L2.64776 20.2057ZM7.54771 8.0476V9.2857H8.54771V8.0476H7.54771ZM16.7144 18.4524H17.9525V17.4524H16.7144V18.4524ZM7.54771 9.2857C7.54771 14.3483 11.6518 18.4524 16.7144 18.4524V17.4524C12.2041 17.4524 8.54771 13.796 8.54771 9.2857H7.54771ZM8.34771 8.4476L9.11713 7.87054L8.51713 7.07054L7.74771 7.6476L8.34771 8.4476ZM10.2924 8.36946L10.5717 10.604L11.564 10.48L11.2847 8.24543L10.2924 8.36946ZM10.3612 11.2175L8.93225 12.6464L9.63936 13.3535L11.0683 11.9246L10.3612 11.2175ZM10.5717 10.604C10.6 10.83 10.5223 11.0564 10.3612 11.2175L11.0683 11.9246C11.4476 11.5453 11.6305 11.0122 11.564 10.48L10.5717 10.604ZM9.11713 7.87054C9.57051 7.5305 10.2221 7.80711 10.2924 8.36946L11.2847 8.24543C11.1191 6.92119 9.58477 6.26981 8.51713 7.07054L9.11713 7.87054ZM18.3349 18.2744L18.8838 17.6227L18.1189 16.9785L17.57 17.6303L18.3349 18.2744ZM17.806 14.7833L15.5448 14.4524L15.4 15.4419L17.6612 15.7728L17.806 14.7833ZM14.0641 14.9432L12.6465 16.3607L13.3536 17.0678L14.7712 15.6503L14.0641 14.9432ZM15.5448 14.4524C15.0014 14.3729 14.4524 14.5549 14.0641 14.9432L14.7712 15.6503C14.9361 15.4854 15.1692 15.4081 15.4 15.4419L15.5448 14.4524ZM18.8838 17.6227C19.7611 16.5808 19.1536 14.9805 17.806 14.7833L17.6612 15.7728C18.2335 15.8565 18.4914 16.5361 18.1189 16.9785L18.8838 17.6227Z" fill="white"/>
</svg>
