<svg width="28" height="25" viewBox="0 0 28 25" fill="none" xmlns="http://www.w3.org/2000/svg">
<path d="M27.292 0.666687L27.7909 0.63361C27.7776 0.433039 27.6455 0.259931 27.4556 0.194187C27.2656 0.128442 27.0547 0.182844 26.9203 0.332284L27.292 0.666687ZM25.8902 6.3027C25.8902 6.02655 25.6663 5.8027 25.3902 5.8027C25.1141 5.8027 24.8902 6.02655 24.8902 6.3027H25.8902ZM13.9998 8.00002V8.50002H14.4998V8.00002H13.9998ZM2.56833 0.666687L3.03658 0.491363C2.96681 0.305027 2.7932 0.177791 2.59451 0.167373C2.39581 0.156955 2.20985 0.265338 2.12098 0.443356L2.56833 0.666687ZM9.99984 18L10.3537 18.3533C10.476 18.2307 10.5263 18.0536 10.4864 17.8851C10.4466 17.7165 10.3224 17.5806 10.1582 17.5258L9.99984 18ZM0.666504 21.6191V21.1191C0.446236 21.1191 0.251915 21.2632 0.18801 21.474C0.124104 21.6848 0.205671 21.9126 0.388857 22.0349L0.666504 21.6191ZM23.9352 2.52075L23.5643 2.85609L23.7445 3.05533L24.0101 3.01511L23.9352 2.52075ZM26.7931 0.699764C26.8928 2.20402 26.8059 3.17601 26.5353 3.93899C26.2683 4.69152 25.8048 5.29121 25.0443 6.01996L25.7361 6.74198C26.5472 5.96482 27.1359 5.23675 27.4777 4.27331C27.8158 3.32033 27.894 2.18812 27.7909 0.63361L26.7931 0.699764ZM25.8902 7.69048V6.38097H24.8902V7.69048H25.8902ZM25.8902 6.38097V6.3027H24.8902V6.38097H25.8902ZM13.4998 6.66669V8.00002H14.4998V6.66669H13.4998ZM19.7629 0.166687C16.2671 0.166687 13.4998 3.21755 13.4998 6.66669H14.4998C14.4998 3.71753 16.8703 1.16669 19.7629 1.16669V0.166687ZM24.8902 7.69048C24.8902 16.1687 17.7783 23.5 9.33317 23.5V24.5C18.3501 24.5 25.8902 16.7013 25.8902 7.69048H24.8902ZM2.10007 0.842011C3.10273 3.51991 6.88981 8.50002 13.9998 8.50002V7.50002C7.41675 7.50002 3.93574 2.89283 3.03658 0.491363L2.10007 0.842011ZM2.12098 0.443356C0.172053 4.34723 -0.146318 8.12098 1.18705 11.3118C2.52043 14.5027 5.46473 17.0131 9.8415 18.4743L10.1582 17.5258C5.97674 16.1298 3.30347 13.783 2.10973 10.9263C0.915981 8.06954 1.16096 4.6052 3.01568 0.890018L2.12098 0.443356ZM9.64601 17.6467C8.44934 18.8453 5.06925 21.1191 0.666504 21.1191V22.1191C5.39251 22.1191 9.01461 19.6944 10.3537 18.3533L9.64601 17.6467ZM24.3061 2.1854C23.1857 0.946355 21.5649 0.166687 19.7629 0.166687V1.16669C21.2703 1.16669 22.6254 1.81766 23.5643 2.85609L24.3061 2.1854ZM24.0101 3.01511C25.3511 2.81201 26.6708 2.10488 27.6637 1.00109L26.9203 0.332284C26.0761 1.27067 24.9635 1.8593 23.8603 2.02638L24.0101 3.01511ZM0.388857 22.0349C3.34984 24.0119 6.19801 24.5 9.33317 24.5V23.5C6.32201 23.5 3.68863 23.0357 0.94415 21.2032L0.388857 22.0349Z" fill="white"/>
</svg>
