<svg width="29" height="29" viewBox="0 0 29 29" fill="none" xmlns="http://www.w3.org/2000/svg">
<path d="M22.0952 7.59525H23.4761M6.21424 0.690491H22.7857C25.8364 0.690491 28.3095 3.16358 28.3095 6.2143V22.7857C28.3095 25.8364 25.8364 28.3095 22.7857 28.3095H6.21424C3.16352 28.3095 0.69043 25.8364 0.69043 22.7857V6.2143C0.69043 3.16358 3.16352 0.690491 6.21424 0.690491ZM14.5 20.0238C11.4492 20.0238 8.97614 17.5507 8.97614 14.5C8.97614 11.4493 11.4492 8.97621 14.5 8.97621C17.5507 8.97621 20.0238 11.4493 20.0238 14.5C20.0238 17.5507 17.5507 20.0238 14.5 20.0238Z" stroke="white"/>
</svg>
