<svg width="30" height="30" viewBox="0 0 30 30" fill="none" xmlns="http://www.w3.org/2000/svg">
<path d="M15 2.14288C12.6904 2.14288 10.6513 2.82459 9.21144 4.56286C7.92753 6.11171 7.20027 9.26368 7.07968 11.8946L6.93351 11.9157L6.89087 11.9219C6.67526 11.9528 6.41826 11.9899 6.15392 12.0395C5.22327 12.2178 3.46183 12.6919 3.06715 14.5949C2.882 15.4838 3.09031 16.2601 3.56172 16.8618C3.98441 17.3992 4.55692 17.7198 4.9784 17.9204C5.15855 18.0043 5.34094 18.0831 5.52534 18.1569C5.10509 19.3231 4.36813 20.5241 3.55198 21.6111C2.78821 22.6288 2.99043 23.9177 3.38511 24.7583C3.77978 25.6002 4.52552 25.5622 5.76923 25.6167C6.47453 25.6477 7.21394 25.7207 7.94969 25.8569C8.28224 25.9188 8.67447 26.055 9.16172 26.2593C9.44522 26.3795 9.72704 26.5037 10.0071 26.6319C10.2349 26.7359 10.4773 26.8449 10.7562 26.9662C11.9013 27.4664 13.4408 27.8572 15 27.8572C16.5592 27.8572 17.8336 27.4664 18.9786 26.9662C19.2576 26.8449 19.4987 26.7359 19.7277 26.6319L19.7785 26.609C20.0468 26.4876 20.2992 26.3734 20.5731 26.2593C21.0604 26.055 21.4526 25.92 21.7852 25.8581C22.5209 25.7219 23.2603 25.6477 23.9644 25.6167C25.2093 25.5622 26.1751 25.6002 26.571 24.7583C26.9656 23.9177 27.1678 22.6288 26.4041 21.6111C25.5928 20.5315 24.8595 19.3392 24.438 18.1804C24.6183 18.1098 24.8327 18.0256 25.0471 17.9266C25.4795 17.7297 26.0837 17.4041 26.5064 16.8408C26.9973 16.187 27.1374 15.3625 26.8572 14.4723C26.2981 12.7006 24.6744 12.2277 23.723 12.0407C23.466 11.99 23.2187 11.9528 23.0116 11.9231L22.9872 11.9194L22.8752 11.9021C22.746 9.43455 22.0578 6.31228 20.8032 4.73992C19.3901 2.97069 17.3632 2.14288 15 2.14288Z" stroke="white"/>
</svg>
